<?xml version="1.0" encoding="utf-8"?>
<!-- Generator: Adobe Illustrator 15.0.0, SVG Export Plug-In . SVG Version: 6.00 Build 0)  -->
<!DOCTYPE svg PUBLIC "-//W3C//DTD SVG 1.1//EN" "http://www.w3.org/Graphics/SVG/1.1/DTD/svg11.dtd">
<svg version="1.1" id="Layer_1" xmlns="http://www.w3.org/2000/svg" xmlns:xlink="http://www.w3.org/1999/xlink" x="0px" y="0px"
	 width="155px" height="148px" viewBox="229.5 324.5 155 148" enable-background="new 229.5 324.5 155 148" xml:space="preserve">
<g>
	<g>
		<g>
			<path fill="#3589AF" d="M306.981,365.333h-9.776c0.273-10.101,3.641-18.396,10.088-24.884c6.445-6.488,14.406-9.73,23.883-9.73
				c9.379,0,16.974,3.042,22.771,9.128c5.799,6.083,8.705,13.265,8.705,21.536c0,5.807-1.386,11.249-4.156,16.338
				c-2.764,5.086-8.133,11.975-16.107,20.664l-25.397,27.481h56.024v9.89h-78.238l38.958-42.304
				c7.909-8.506,13.055-14.815,15.424-18.926c2.377-4.116,3.574-8.447,3.574-12.999c0-5.768-2.14-10.727-6.412-14.885
				c-4.273-4.161-9.509-6.24-15.703-6.24c-6.515,0-11.931,2.185-16.258,6.543C310.037,351.309,307.57,357.446,306.981,365.333z"/>
		</g>
	</g>
	<g>
		<path fill="#054C6F" d="M305.105,342.874h2.123v82.722v10.035v25.088h-10.41v-25.088h-59.365L305.105,342.874z M296.818,425.596
			v-53.472l-38.576,53.472H296.818z"/>
	</g>
</g>
<g>
	<path fill="#BBBBBB" d="M312.504,457.627h8.853v2.183h-11.226v-19.138h2.373V457.627L312.504,457.627z"/>
	<path fill="#BBBBBB" d="M325.848,459.81h-2.375v-19.138h2.375V459.81z"/>
	<path fill="#BBBBBB" d="M329.947,439.758l13.039,15.052v-14.138h2.375v19.927l-13.041-15.054v14.265h-2.373V439.758
		L329.947,439.758z"/>
	<path fill="#BBBBBB" d="M349.268,440.672H359.5v2.184h-7.857v5.354h7.63v2.185h-7.63v7.232h7.857v2.183h-10.232V440.672z"/>
	<path fill="#BBBBBB" d="M370.891,444.301c-0.709-1.19-1.616-1.801-3.057-1.801c-1.516,0-3.184,1.041-3.184,2.715
		c0,1.498,1.467,2.285,2.651,2.742l1.365,0.531c2.701,1.067,4.723,2.564,4.723,5.762c0,3.479-2.678,5.966-6.088,5.966
		c-3.082,0-5.481-2.284-5.885-5.354l2.398-0.51c-0.025,2.108,1.643,3.632,3.688,3.632c2.045,0,3.51-1.728,3.51-3.732
		c0-2.055-1.641-2.943-3.282-3.629l-1.314-0.559c-2.172-0.938-4.141-2.183-4.141-4.849c0-3.096,2.729-4.949,5.606-4.949
		c2.121,0,3.865,1.041,4.9,2.894L370.891,444.301z"/>
</g>
</svg>
